<?xml version="1.0" standalone="no"?>
<!DOCTYPE svg PUBLIC "-//W3C//DTD SVG 20010904//EN"
 "http://www.w3.org/TR/2001/REC-SVG-20010904/DTD/svg10.dtd">
<svg version="1.0" xmlns="http://www.w3.org/2000/svg"
 width="1024.000000pt" height="1024.000000pt" viewBox="0 0 1024.000000 1024.000000"
 preserveAspectRatio="xMidYMid meet">
<metadata>
Created by potrace 1.16, written by Peter Selinger 2001-2019
</metadata>
<g transform="translate(0.000000,1024.000000) scale(0.100000,-0.100000)"
fill="#000000" stroke="none">
<path d="M2870 8503 c-276 -26 -498 -128 -669 -308 -140 -148 -224 -308 -262
-500 -9 -43 -13 -380 -16 -1216 l-4 -1157 -97 -4 c-74 -3 -108 -10 -144 -27
-74 -36 -134 -95 -169 -167 -102 -207 6 -449 228 -510 l61 -17 5 -446 c5 -493
9 -533 72 -726 82 -252 234 -483 435 -662 78 -69 221 -168 303 -209 26 -13 47
-28 47 -32 0 -4 -43 -119 -95 -255 -83 -217 -95 -256 -95 -310 0 -78 40 -153
102 -194 41 -28 43 -28 239 -31 228 -4 263 3 323 58 38 35 343 500 377 573
l12 27 1599 0 c907 0 1598 -4 1598 -9 0 -22 354 -550 394 -587 62 -57 96 -64
300 -64 154 0 182 2 214 19 84 43 131 119 132 212 0 47 -16 101 -90 303 -49
136 -90 250 -90 254 0 4 20 15 45 25 75 31 247 151 334 233 143 134 233 255
316 422 60 121 97 229 127 364 18 83 20 141 25 564 l5 471 58 11 c115 24 217
114 261 232 27 72 23 201 -8 272 -30 66 -105 143 -172 175 -54 27 -63 28 -271
35 -118 3 -1553 4 -3188 1 l-2973 -6 3 1164 3 1164 23 73 c82 268 288 465 565
543 107 30 317 33 417 6 154 -42 311 -140 407 -256 47 -57 133 -210 133 -237
0 -5 -33 -19 -73 -31 -193 -59 -346 -208 -419 -407 -25 -68 -31 -100 -35 -201
-4 -109 -3 -123 16 -153 40 -63 32 -62 658 -62 533 0 570 1 603 18 19 11 42
35 53 55 17 33 18 46 8 154 -15 185 -70 310 -186 428 -93 94 -235 170 -352
190 -31 5 -43 12 -43 23 0 31 -66 179 -112 253 -126 203 -347 369 -568 428
-41 11 -122 25 -179 31 -101 10 -120 10 -191 3z m1059 -958 c177 -42 325 -194
347 -358 l7 -47 -452 0 c-517 0 -468 -12 -430 103 53 158 174 267 333 302 81
18 118 18 195 0z m4541 -2457 c100 -52 106 -182 11 -245 l-34 -23 -3326 0
c-3279 0 -3326 0 -3358 20 -99 60 -93 204 10 251 41 18 120 19 3347 19 l3306
0 44 -22z m-263 -955 c-4 -386 -7 -480 -21 -536 -64 -269 -185 -481 -376 -659
-145 -135 -303 -224 -505 -284 -85 -25 -107 -27 -405 -36 -173 -5 -1098 -7
-2055 -5 -1890 4 -1768 1 -1937 58 -443 148 -785 537 -863 983 -12 71 -15 177
-15 517 l0 429 3091 0 3091 0 -5 -467z m-5252 -1709 c33 -8 113 -17 178 -21
65 -3 120 -10 123 -14 2 -4 -57 -105 -133 -223 l-138 -216 -147 0 c-82 0 -148
4 -148 8 0 6 82 228 169 455 12 31 15 31 96 11z m4505 -226 c48 -131 85 -240
82 -243 -3 -3 -67 -5 -143 -5 l-137 0 -136 209 c-75 115 -138 216 -141 223 -5
12 16 16 122 21 70 4 153 13 183 21 30 8 61 13 69 13 8 -1 48 -96 101 -239z"/>
<path d="M3325 6638 c-33 -30 -134 -269 -135 -320 0 -55 41 -98 101 -105 69
-8 98 23 155 166 53 130 62 177 44 221 -25 59 -116 80 -165 38z"/>
<path d="M3793 6650 c-13 -5 -32 -24 -43 -42 -17 -28 -20 -51 -20 -161 0 -180
24 -227 117 -227 33 0 50 7 75 29 l33 29 0 156 0 156 -31 31 c-34 33 -91 46
-131 29z"/>
<path d="M4249 6621 c-24 -25 -29 -37 -29 -78 1 -39 12 -70 63 -167 69 -133
94 -159 157 -159 51 0 97 39 106 91 6 29 -3 53 -61 166 -79 155 -98 176 -161
176 -37 0 -51 -6 -75 -29z"/>
<path d="M3083 6060 c-29 -12 -42 -34 -108 -177 -68 -152 -71 -189 -20 -240
33 -33 39 -35 81 -30 31 3 54 13 70 28 29 31 134 270 134 309 0 86 -79 141
-157 110z"/>
<path d="M3823 6060 c-71 -16 -81 -46 -85 -242 -3 -146 -3 -147 23 -173 49
-49 139 -42 175 14 24 35 38 290 19 336 -21 53 -72 77 -132 65z"/>
<path d="M4554 6036 c-52 -52 -48 -90 29 -250 40 -82 75 -141 92 -154 67 -53
163 -9 171 78 4 39 -4 63 -59 180 -49 106 -70 140 -97 157 -49 34 -95 30 -136
-11z"/>
</g>
</svg>
