<?xml version="1.0" standalone="no"?>
<!DOCTYPE svg PUBLIC "-//W3C//DTD SVG 20010904//EN"
 "http://www.w3.org/TR/2001/REC-SVG-20010904/DTD/svg10.dtd">
<svg version="1.0" xmlns="http://www.w3.org/2000/svg"
 width="1024.000000pt" height="1024.000000pt" viewBox="0 0 1024.000000 1024.000000"
 preserveAspectRatio="xMidYMid meet">
<metadata>
Created by potrace 1.16, written by Peter Selinger 2001-2019
</metadata>
<g transform="translate(0.000000,1024.000000) scale(0.100000,-0.100000)"
fill="#000000" stroke="none">
<path d="M4920 8449 c-382 -43 -696 -191 -973 -457 -108 -105 -224 -241 -290
-342 -26 -41 -50 -76 -51 -78 -2 -2 -50 7 -107 19 -156 33 -438 33 -599 0
-323 -67 -571 -200 -800 -430 -223 -223 -344 -447 -410 -756 -27 -127 -38
-400 -21 -530 44 -333 194 -629 447 -880 214 -212 485 -350 784 -401 l105 -18
0 -1155 c0 -1091 1 -1160 18 -1221 42 -148 149 -291 263 -352 114 -61 11 -58
1834 -58 1834 0 1719 -4 1841 61 118 63 223 200 266 345 16 55 17 142 14 1221
l-4 1162 39 6 c479 78 807 283 1061 665 276 414 329 954 139 1424 -126 314
-341 563 -629 733 -255 150 -478 208 -797 208 -169 -1 -276 -12 -385 -40 -16
-4 -27 6 -53 50 -124 207 -321 410 -535 554 -324 217 -748 316 -1157 270z
m515 -258 c220 -51 424 -142 576 -256 165 -124 330 -308 419 -470 80 -146 160
-371 191 -538 5 -32 14 -110 18 -173 7 -105 10 -117 33 -141 19 -19 40 -27 76
-31 44 -4 53 -1 82 25 29 26 34 37 38 90 8 118 -24 331 -80 523 -17 58 -32
112 -35 121 -7 23 110 39 285 39 227 0 393 -37 587 -130 364 -175 625 -512
712 -920 25 -119 25 -382 -1 -500 -54 -251 -168 -462 -346 -641 -218 -220
-487 -346 -804 -378 -66 -7 -119 -17 -134 -27 -52 -34 -52 -30 -52 -764 l0
-680 -1880 0 -1880 0 0 695 0 695 -28 31 c-26 29 -34 32 -122 40 -604 59
-1085 493 -1186 1069 -22 130 -15 389 14 510 123 507 521 881 1044 981 98 19
136 21 283 16 178 -6 249 -18 385 -70 194 -73 328 -164 502 -339 125 -126 139
-138 172 -138 51 0 105 51 112 105 8 55 -30 110 -175 255 -114 113 -243 210
-355 267 -28 14 -53 27 -55 29 -10 9 149 202 242 294 246 242 496 372 823 425
130 21 419 13 539 -14z m1575 -5469 c0 -230 -4 -401 -11 -437 -22 -121 -94
-211 -193 -240 -75 -23 -3287 -22 -3363 0 -79 24 -126 64 -165 142 l-33 68 -3
422 -3 423 1885 0 1886 0 0 -378z"/>
<path d="M3640 5595 c-36 -19 -54 -57 -46 -97 3 -19 34 -84 69 -144 235 -411
609 -677 1064 -754 442 -76 910 76 1266 412 l67 63 0 57 c0 50 -4 62 -31 93
-25 29 -38 35 -69 35 -34 0 -50 -10 -121 -71 -293 -252 -527 -354 -844 -366
-214 -8 -391 30 -580 124 -242 121 -405 278 -555 536 -34 59 -71 112 -81 117
-26 14 -110 11 -139 -5z"/>
</g>
</svg>
