<?xml version="1.0" standalone="no"?>
<!DOCTYPE svg PUBLIC "-//W3C//DTD SVG 20010904//EN"
 "http://www.w3.org/TR/2001/REC-SVG-20010904/DTD/svg10.dtd">
<svg version="1.0" xmlns="http://www.w3.org/2000/svg"
 width="1024.000000pt" height="1024.000000pt" viewBox="0 0 1024.000000 1024.000000"
 preserveAspectRatio="xMidYMid meet">
<metadata>
Created by potrace 1.16, written by Peter Selinger 2001-2019
</metadata>
<g transform="translate(0.000000,1024.000000) scale(0.100000,-0.100000)"
fill="#000000" stroke="none">
<path d="M5058 8456 c-57 -15 -77 -28 -164 -108 -39 -34 -211 -182 -384 -328
-173 -145 -549 -465 -835 -710 -660 -564 -1216 -1037 -1652 -1403 -235 -198
-346 -299 -357 -322 -9 -19 -19 -63 -23 -98 -9 -96 -11 -92 245 -380 112 -125
148 -147 243 -147 79 0 98 10 228 118 55 45 102 82 105 82 3 0 6 -703 6 -1563
0 -1769 -6 -1632 80 -1717 87 -88 -157 -80 2575 -80 2730 0 2478 -8 2565 79
87 87 80 -55 80 1728 l0 1574 105 -93 c140 -123 165 -138 240 -138 109 0 136
22 374 300 122 142 138 188 106 296 -10 35 -28 62 -62 95 -48 46 -1021 880
-1458 1249 -126 107 -363 307 -525 445 -485 412 -1202 1018 -1245 1052 -61 47
-134 83 -169 82 -17 0 -52 -6 -78 -13z m370 -458 c622 -531 1324 -1129 1572
-1338 140 -118 350 -296 465 -395 116 -100 371 -317 568 -484 l358 -303 -24
-27 c-13 -14 -66 -75 -117 -136 -51 -60 -101 -118 -111 -129 -17 -18 -24 -13
-221 155 -111 96 -288 246 -393 334 -254 214 -750 637 -1015 865 -538 466
-1302 1110 -1340 1130 -36 19 -104 7 -144 -26 -18 -16 -112 -97 -207 -180 -96
-84 -316 -272 -489 -419 -640 -544 -1034 -879 -1440 -1225 -568 -485 -748
-634 -764 -638 -14 -3 -255 274 -255 293 1 9 198 179 1014 870 175 149 523
446 774 660 250 215 549 470 665 569 268 227 585 500 701 604 50 45 91 81 93
82 2 0 142 -118 310 -262z m-223 -639 c39 -34 153 -131 255 -217 102 -86 354
-301 560 -477 206 -176 443 -376 525 -445 83 -68 319 -269 525 -445 206 -176
399 -340 428 -364 l52 -44 0 -1649 0 -1649 -25 -24 -24 -25 -746 0 -745 0 0
1138 c0 1280 4 1205 -73 1285 -79 80 -49 78 -833 75 l-689 -3 -48 -24 c-28
-14 -61 -41 -78 -64 -61 -85 -59 -33 -59 -1274 l0 -1133 -745 0 -746 0 -24 25
-25 24 2 1648 3 1647 335 284 c184 157 472 400 640 541 415 349 625 527 755
641 61 53 209 179 330 280 121 102 253 213 292 247 40 35 76 63 80 63 5 -1 40
-28 78 -61z m564 -3085 c21 -27 21 -29 21 -1140 l0 -1114 -670 0 -670 0 2
1119 c3 1084 4 1120 22 1140 19 21 21 21 647 21 l628 0 20 -26z"/>
<path d="M4555 6291 c-53 -24 -91 -70 -110 -133 -21 -71 -22 -935 -2 -1016 17
-63 59 -125 104 -153 33 -21 42 -21 560 -20 504 2 529 3 572 22 56 25 87 52
114 104 22 39 22 50 25 533 2 344 -1 505 -9 535 -15 57 -81 120 -142 135 -32
8 -203 12 -559 12 -476 0 -516 -2 -553 -19z m1035 -656 l0 -445 -462 2 -463 3
-3 443 -2 442 465 0 465 0 0 -445z"/>
</g>
</svg>
