<?xml version="1.0" standalone="no"?>
<!DOCTYPE svg PUBLIC "-//W3C//DTD SVG 20010904//EN"
 "http://www.w3.org/TR/2001/REC-SVG-20010904/DTD/svg10.dtd">
<svg version="1.0" xmlns="http://www.w3.org/2000/svg"
 width="1276.000000pt" height="1290.000000pt" viewBox="0 0 1276.000000 1290.000000"
 preserveAspectRatio="xMidYMid meet">
<metadata>
Created by potrace 1.16, written by Peter Selinger 2001-2019
</metadata>
<g transform="translate(0.000000,1290.000000) scale(0.100000,-0.100000)"
fill="#000000" stroke="none">
<path d="M10 6460 l0 -6410 6353 2 6352 3 3 6408 2 6407 -6355 0 -6355 0 0
-6410z m12668 3 l2 -6363 -6315 0 -6315 0 0 6365 0 6365 6313 -2 6312 -3 3
-6362z"/>
<path d="M6502 10623 l-33 -4 6 -152 c4 -84 10 -228 15 -322 5 -93 7 -171 5
-173 -1 -2 -115 139 -251 312 l-248 316 -81 0 c-44 0 -86 -4 -93 -9 -14 -8 -7
-274 18 -751 5 -96 10 -190 10 -209 l0 -34 92 7 c50 3 92 7 93 9 1 1 -1 81 -6
177 -4 96 -10 243 -14 325 l-6 150 20 -25 c11 -14 123 -155 248 -315 l229
-290 64 -3 c36 -2 80 0 98 3 l32 6 -5 82 c-3 45 -12 258 -21 472 -8 215 -17
400 -20 413 -4 20 -10 22 -62 20 -31 0 -72 -3 -90 -5z"/>
<path d="M7147 10573 c-3 -5 -8 -24 -12 -43 -4 -19 -33 -143 -65 -275 -133
-554 -152 -636 -148 -640 12 -12 391 -97 455 -102 281 -23 482 178 500 500 7
121 -13 203 -68 286 -77 115 -162 161 -424 225 -245 60 -233 57 -238 49z m376
-258 c52 -22 117 -83 138 -130 52 -117 17 -313 -76 -423 -38 -46 -119 -82
-182 -82 -55 0 -242 37 -257 50 -8 8 5 69 100 461 l45 186 97 -23 c53 -13 114
-30 135 -39z"/>
<path d="M4893 10376 c-276 -90 -399 -317 -322 -595 75 -271 235 -414 462
-412 141 1 272 51 371 142 102 93 137 176 137 324 0 237 -134 466 -315 538
-90 37 -226 37 -333 3z m268 -182 c79 -44 141 -137 173 -261 44 -168 -4 -287
-142 -355 -57 -28 -77 -33 -137 -33 -80 1 -133 25 -192 87 -70 73 -131 252
-119 346 26 195 245 309 417 216z"/>
<path d="M8543 9575 c-152 -228 -274 -417 -272 -418 6 -6 513 -343 525 -350 7
-4 30 21 56 61 l45 68 -188 124 c-103 69 -188 130 -188 135 -1 10 68 118 116
182 l24 33 178 -119 178 -119 41 61 c26 39 38 65 32 72 -5 6 -83 60 -175 120
-91 61 -164 115 -163 120 6 23 124 194 134 195 6 0 95 -56 197 -124 l185 -124
46 69 46 68 -270 181 -270 180 -277 -415z"/>
<path d="M3871 9885 c-61 -47 -111 -89 -111 -93 0 -4 54 -169 119 -367 66
-198 118 -362 116 -364 -3 -2 -149 90 -325 204 -283 183 -324 206 -343 197
-49 -24 -217 -163 -210 -175 11 -18 573 -750 587 -765 10 -11 26 -2 85 43 49
39 69 61 63 68 -172 219 -440 578 -429 574 8 -3 157 -98 332 -211 174 -113
319 -206 321 -206 9 0 154 112 154 119 0 3 -54 170 -120 369 -66 200 -120 368
-120 374 0 5 23 -21 52 -59 192 -252 383 -500 393 -511 9 -10 26 -2 84 43 44
35 69 61 64 68 -4 7 -95 127 -203 267 -108 140 -240 312 -294 383 -53 70 -99
127 -101 127 -1 0 -53 -38 -114 -85z"/>
<path d="M9338 9014 c-201 -181 -366 -333 -366 -339 -1 -14 262 -307 307 -342
115 -92 235 -125 359 -99 104 22 203 77 286 161 156 155 200 316 136 488 -30
79 -77 145 -201 284 -58 65 -117 131 -130 147 l-25 28 -366 -328z m502 -79
c21 -28 46 -76 55 -109 16 -55 16 -63 1 -119 -21 -73 -59 -131 -128 -191 -105
-92 -210 -123 -309 -91 -46 15 -69 33 -152 118 l-99 101 44 41 c24 22 135 123
248 223 l205 184 48 -54 c27 -29 66 -75 87 -103z"/>
<path d="M2551 8595 l-62 -87 49 -71 c27 -40 158 -234 292 -432 134 -198 246
-364 250 -368 7 -8 110 124 110 140 0 4 -30 51 -66 104 l-67 97 123 174 c67
95 127 172 133 172 7 -1 57 -14 112 -28 54 -15 104 -25 110 -22 14 5 110 144
104 150 -2 1 -60 17 -129 35 -69 17 -282 72 -475 121 -192 50 -366 93 -386 97
-36 5 -37 5 -98 -82z m429 -180 c74 -20 141 -38 147 -40 8 -3 -20 -52 -75
-129 -48 -69 -89 -126 -92 -125 -6 0 -243 342 -248 357 -1 5 27 2 65 -8 37
-10 129 -35 203 -55z"/>
<path d="M10249 8190 c-180 -21 -377 -156 -450 -307 -101 -211 0 -501 229
-657 l69 -48 182 91 181 91 -81 163 c-45 89 -83 164 -85 166 -5 5 -124 -50
-130 -61 -3 -4 13 -43 35 -88 l40 -80 -70 -35 -70 -36 -29 21 c-105 75 -161
269 -110 376 58 119 285 240 412 220 80 -13 152 -66 206 -150 42 -67 82 -199
82 -272 l0 -64 80 40 c92 46 92 45 64 176 -30 148 -115 292 -219 371 -95 72
-200 98 -336 83z"/>
<path d="M2131 7878 c-5 -13 -21 -49 -36 -82 -14 -32 -25 -60 -23 -61 2 -1 37
-17 78 -35 41 -18 242 -109 447 -201 205 -93 374 -169 376 -169 10 0 78 163
70 170 -4 4 -176 83 -381 175 -206 91 -401 180 -435 196 -75 35 -85 36 -96 7z"/>
<path d="M7156 7534 c-14 -13 -16 -65 -16 -410 0 -217 -3 -394 -7 -394 -5 0
-110 102 -235 227 l-228 228 0 -42 c0 -23 5 -54 10 -68 6 -15 93 -109 194
-208 100 -100 202 -203 225 -229 l41 -48 0 -160 c0 -131 -3 -160 -14 -160 -8
0 -110 99 -226 220 -117 121 -217 220 -221 220 -5 0 -9 -23 -9 -52 l0 -52 224
-225 c124 -124 229 -239 235 -254 8 -19 11 -282 11 -821 0 -648 -2 -796 -13
-805 -9 -7 -92 -12 -233 -13 l-219 -3 0 -35 0 -35 230 -5 230 -5 3 -33 c3 -27
-1 -34 -23 -42 -17 -7 -684 -10 -1925 -10 l-1899 0 -6 -21 c-4 -13 0 -27 11
-40 17 -19 70 -19 3295 -19 l3278 0 11 20 c6 12 8 30 5 40 -6 20 -21 20 -965
20 -527 0 -965 3 -974 6 -20 8 -21 57 -3 73 10 8 262 12 888 13 l874 3 3 23
c8 54 50 52 -887 52 -661 0 -870 3 -879 12 -18 18 -17 818 1 818 6 0 131 -121
277 -269 146 -148 284 -286 308 -306 l42 -37 0 57 0 57 -309 306 c-169 169
-313 317 -320 329 -12 24 -16 333 -4 333 5 0 182 -174 394 -386 228 -228 391
-384 398 -380 14 9 13 54 -2 88 -7 15 -189 205 -404 422 l-393 394 0 540 c0
483 -2 540 -16 546 -24 9 -31 8 -48 -10 -14 -14 -16 -72 -16 -495 0 -361 -3
-479 -12 -479 -6 0 -137 125 -291 278 -213 211 -285 289 -303 327 l-24 50 0
426 c0 380 -2 428 -16 433 -24 9 -31 8 -48 -10z m378 -1332 c164 -164 302
-305 307 -313 5 -8 9 -85 9 -171 0 -121 -3 -158 -13 -158 -7 0 -148 136 -315
303 l-302 303 0 167 c0 92 3 167 8 167 4 0 142 -134 306 -298z m14 -475 l302
-303 0 -455 c0 -341 -3 -458 -12 -467 -17 -17 -589 -17 -606 0 -9 9 -12 192
-12 763 0 414 3 755 7 758 3 4 9 7 12 7 3 0 142 -137 309 -303z m300 -1356 c2
-20 -2 -37 -10 -42 -22 -14 -592 -11 -606 3 -13 13 -16 60 -5 71 4 4 144 6
312 5 l306 -3 3 -34z"/>
<path d="M2120 7264 c-132 -36 -229 -125 -285 -262 -19 -46 -115 -425 -115
-452 0 -4 39 -17 88 -29 149 -35 815 -189 848 -196 l32 -6 31 133 c76 327 81
361 56 467 -41 174 -167 287 -374 340 -98 24 -201 26 -281 5z m232 -195 c151
-32 252 -129 265 -253 4 -46 -35 -257 -51 -273 -3 -3 -133 24 -288 60 -156 36
-300 69 -320 73 -32 5 -37 10 -33 28 20 96 50 206 63 231 36 72 85 116 150
135 40 12 154 12 214 -1z"/>
<path d="M6310 6915 c-145 -146 -267 -265 -272 -265 -4 0 -8 34 -8 75 l0 76
-102 -3 -103 -3 -5 -194 -5 -194 -197 -192 c-109 -106 -198 -196 -198 -199 0
-3 262 -5 583 -4 l582 3 3 574 c1 316 -1 578 -6 583 -4 4 -127 -111 -272 -257z"/>
<path d="M10885 7100 c-126 -27 -295 -62 -649 -134 -92 -19 -171 -37 -174 -40
-5 -5 16 -115 98 -511 11 -55 22 -105 25 -111 6 -19 155 16 155 36 0 9 -16 92
-36 185 -20 94 -38 188 -41 211 l-5 41 93 21 c160 36 157 35 162 15 3 -10 22
-101 43 -203 20 -102 40 -188 43 -193 4 -4 39 0 77 9 l71 15 -29 137 c-15 75
-35 168 -43 207 -8 38 -11 73 -7 76 9 8 232 52 237 48 2 -2 22 -94 44 -204 23
-110 44 -210 47 -223 3 -16 10 -22 22 -18 9 2 44 10 77 17 33 7 62 14 63 15 2
1 -5 45 -17 96 -11 51 -38 183 -61 293 -22 110 -43 210 -46 223 -2 12 -8 22
-12 21 -4 -1 -65 -14 -137 -29z"/>
<path d="M4406 6076 c-520 -519 -946 -949 -946 -954 0 -6 11 -24 24 -39 l25
-29 957 957 958 958 -24 26 c-13 14 -29 25 -36 25 -7 0 -438 -425 -958 -944z"/>
<path d="M5363 6791 c-13 -11 -23 -23 -23 -28 0 -4 78 -86 173 -181 l173 -173
27 21 c15 12 27 27 27 33 0 15 -331 347 -345 347 -6 -1 -20 -9 -32 -19z"/>
<path d="M4687 6112 l-577 -577 0 -472 c0 -440 1 -473 18 -481 9 -4 281 -6
605 -4 l587 4 0 715 c0 638 2 719 16 749 9 19 74 89 145 156 70 67 131 128
134 137 4 10 -48 69 -162 183 -92 92 -172 168 -178 168 -6 0 -270 -260 -588
-578z"/>
<path d="M3947 6154 c-10 -10 -9 -404 1 -404 4 0 24 16 43 36 l34 35 0 167 0
167 -35 3 c-20 2 -39 0 -43 -4z"/>
<path d="M5429 5918 c-19 -7 -19 -24 -19 -712 0 -633 -2 -704 -16 -710 -9 -3
-445 -6 -970 -6 l-954 0 0 -40 0 -40 1558 2 1557 3 0 100 0 100 -469 3 c-326
1 -473 6 -483 13 -11 9 -13 119 -13 594 0 321 3 590 6 599 5 14 57 16 479 16
502 0 485 -1 485 43 -1 43 10 42 -580 42 -309 0 -570 -3 -581 -7z"/>
<path d="M10060 5745 l0 -35 630 0 630 0 0 35 0 35 -630 0 -630 0 0 -35z"/>
<path d="M1680 5705 l0 -35 635 0 635 0 0 35 0 35 -635 0 -635 0 0 -35z"/>
<path d="M3976 5407 l-36 -44 0 -385 c0 -285 3 -387 12 -396 19 -19 45 -14 62
10 14 19 16 78 16 435 0 241 -4 414 -9 418 -5 3 -26 -14 -45 -38z"/>
<path d="M6322 5333 l3 -108 105 0 105 0 3 108 3 107 -111 0 -111 0 3 -107z"/>
<path d="M2318 5250 c-119 -65 -127 -259 -13 -325 75 -45 163 -30 218 35 14
16 29 30 33 30 8 0 -2 -88 -17 -142 -5 -21 -24 -49 -44 -67 -30 -26 -44 -31
-87 -31 -47 0 -54 3 -90 41 -28 30 -43 39 -58 34 -27 -9 -25 -37 5 -73 73 -87
229 -82 298 10 44 60 60 128 55 246 -5 130 -28 189 -91 230 -54 36 -154 42
-209 12z m168 -58 c27 -15 54 -71 54 -114 0 -45 -33 -96 -75 -114 -100 -42
-185 27 -171 139 11 98 99 139 192 89z"/>
<path d="M10328 5256 c-98 -43 -137 -165 -85 -266 30 -59 64 -82 132 -88 68
-6 106 9 145 57 l30 36 0 -46 c0 -70 -26 -144 -61 -173 -24 -21 -41 -26 -84
-26 -44 0 -58 5 -82 28 -16 15 -32 33 -34 40 -3 9 -13 11 -32 7 -23 -6 -26
-11 -21 -29 22 -71 95 -112 188 -104 71 6 126 42 155 100 60 125 49 340 -22
417 -50 54 -162 77 -229 47z m175 -86 c34 -39 39 -107 11 -161 -15 -30 -69
-59 -111 -59 -38 0 -91 34 -103 66 -14 37 -12 111 4 142 35 68 143 74 199 12z"/>
<path d="M10850 5247 c-65 -34 -93 -91 -88 -179 4 -75 21 -107 78 -145 25 -17
47 -23 89 -23 61 0 96 17 138 67 l24 28 -5 -64 c-7 -79 -38 -146 -77 -166 -15
-8 -49 -15 -74 -15 -37 0 -52 5 -74 28 -15 15 -30 33 -32 41 -6 18 -59 7 -59
-12 0 -27 41 -77 79 -97 47 -23 126 -27 174 -6 45 19 92 75 113 138 39 116 13
318 -49 376 -59 55 -164 68 -237 29z m188 -71 c19 -19 26 -38 29 -78 5 -63 -9
-93 -57 -126 -67 -45 -155 -14 -181 65 -14 43 -3 107 25 139 41 48 136 48 184
0z"/>
<path d="M1910 5250 c-8 -5 -43 -19 -77 -31 -58 -19 -63 -23 -63 -50 0 -16 2
-29 3 -29 5 0 104 35 130 45 16 7 17 -7 17 -214 l0 -221 -80 0 c-79 0 -80 0
-80 -25 l0 -25 180 0 180 0 0 25 c0 24 -2 25 -70 25 l-70 0 0 255 0 255 -27 0
c-16 0 -35 -5 -43 -10z"/>
<path d="M6327 5133 c-13 -12 -8 -201 5 -209 9 -6 153 -9 201 -5 4 1 7 51 7
111 l0 110 -103 0 c-57 0 -107 -3 -110 -7z"/>
<path d="M10060 4280 l0 -40 630 0 630 0 0 40 0 40 -630 0 -630 0 0 -40z"/>
<path d="M1545 4245 l0 -35 633 0 632 0 0 35 0 35 -632 0 -633 0 0 -35z"/>
<path d="M974 3431 c-52 -24 -80 -60 -100 -129 -31 -105 2 -215 78 -265 35
-22 53 -27 106 -27 76 0 121 22 145 73 15 29 15 33 0 44 -13 10 -19 7 -37 -20
-27 -40 -60 -57 -111 -57 -88 0 -140 68 -139 180 0 72 18 116 60 149 54 42
143 35 183 -15 12 -15 25 -22 35 -18 23 9 20 32 -10 59 -50 46 -141 57 -210
26z"/>
<path d="M1742 3437 c-98 -31 -147 -170 -107 -303 25 -85 82 -124 183 -124
142 1 219 128 177 292 -31 121 -131 174 -253 135z m150 -55 c42 -24 62 -76 62
-157 -1 -122 -52 -180 -152 -172 -65 5 -105 39 -121 102 -45 181 73 307 211
227z"/>
<path d="M3284 3431 c-32 -14 -45 -28 -54 -55 -24 -74 15 -132 106 -155 117
-30 147 -61 120 -126 -12 -27 -22 -35 -51 -41 -54 -10 -105 2 -137 33 -26 25
-29 26 -45 10 -16 -15 -15 -18 3 -38 33 -36 70 -49 143 -49 60 0 74 3 100 26
41 34 57 91 37 138 -18 44 -45 61 -126 82 -36 9 -75 25 -87 37 -29 26 -29 68
-2 93 30 27 119 26 149 -1 15 -14 26 -16 36 -10 41 26 -10 65 -92 71 -45 4
-69 0 -100 -15z"/>
<path d="M6253 3439 c-18 -5 -48 -24 -66 -42 -77 -78 -79 -255 -4 -335 36 -38
72 -52 139 -52 76 0 120 23 145 76 15 31 15 36 3 44 -23 15 -27 12 -40 -20
-36 -87 -189 -78 -231 14 -21 46 -25 148 -8 193 35 94 146 120 224 51 29 -25
38 -28 50 -18 13 11 12 16 -5 40 -36 51 -127 72 -207 49z"/>
<path d="M8202 3437 c-140 -44 -165 -308 -39 -401 24 -17 43 -21 111 -21 74 0
86 3 118 27 51 39 70 87 71 177 1 92 -13 138 -56 178 -53 50 -128 65 -205 40z
m150 -53 c34 -18 46 -39 58 -107 15 -76 -2 -154 -40 -192 -27 -27 -37 -30 -95
-30 -56 0 -67 3 -93 28 -17 17 -35 48 -41 72 -45 181 67 302 211 229z"/>
<path d="M11584 3431 c-80 -36 -123 -134 -108 -246 14 -114 83 -175 197 -175
56 0 70 4 97 26 17 15 37 39 45 55 14 26 14 29 -5 39 -17 9 -22 7 -29 -12 -15
-41 -48 -61 -104 -65 -99 -8 -150 51 -150 172 0 92 21 137 77 165 23 11 52 20
64 20 34 0 88 -25 104 -49 10 -14 21 -19 32 -15 23 9 20 27 -11 56 -54 50
-138 61 -209 29z"/>
<path d="M2450 3225 l0 -215 25 0 25 0 2 179 3 179 110 -176 c95 -152 114
-177 138 -180 l27 -3 0 215 0 216 -25 0 -25 0 -2 -167 -3 -167 -105 167 c-101
160 -106 167 -137 167 l-33 0 0 -215z"/>
<path d="M3900 3420 c0 -18 7 -20 65 -20 l65 0 0 -195 0 -195 25 0 25 0 0 195
0 195 70 0 c63 0 70 2 70 20 0 19 -7 20 -160 20 -153 0 -160 -1 -160 -20z"/>
<path d="M4630 3225 l0 -215 25 0 c24 0 24 1 27 98 l3 97 51 3 c70 4 95 -20
127 -118 21 -66 28 -75 50 -78 l26 -3 -29 88 c-17 48 -39 96 -50 105 -20 16
-20 17 9 34 73 43 66 166 -10 193 -18 6 -76 11 -130 11 l-99 0 0 -215z m220
155 c12 -12 20 -33 20 -55 0 -58 -26 -75 -115 -75 l-75 0 0 75 0 75 75 0 c62
0 79 -4 95 -20z"/>
<path d="M5362 3272 c5 -183 13 -213 68 -246 39 -22 152 -22 191 1 52 31 63
70 67 251 l4 162 -25 0 -26 0 -3 -166 -3 -166 -33 -29 c-57 -51 -158 -33 -181
32 -6 18 -11 98 -11 180 l0 149 -26 0 -27 0 5 -168z"/>
<path d="M6852 3423 c3 -15 16 -19 71 -21 l67 -3 0 -194 0 -195 25 0 25 0 0
195 0 194 67 3 c55 2 68 6 71 21 3 16 -10 17 -163 17 -153 0 -166 -1 -163 -17z"/>
<path d="M7590 3225 l0 -215 25 0 25 0 0 215 0 215 -25 0 -25 0 0 -215z"/>
<path d="M8910 3225 l0 -215 25 0 25 0 0 175 c0 96 3 175 8 174 4 0 55 -77
113 -172 90 -147 109 -172 132 -175 l27 -3 0 215 0 216 -25 0 -25 0 -2 -165
-3 -165 -105 165 c-100 157 -106 165 -137 165 l-33 0 0 -215z"/>
<path d="M10180 3225 l0 -215 25 0 25 0 0 215 0 215 -25 0 -25 0 0 -215z"/>
<path d="M10700 3226 l0 -216 25 0 25 0 2 179 3 180 110 -179 c99 -163 113
-180 138 -180 l27 0 0 215 0 215 -25 0 -25 0 -2 -167 -3 -167 -105 165 c-97
152 -108 164 -138 167 l-32 3 0 -215z"/>
<path d="M12234 3055 c-10 -25 4 -45 30 -45 25 0 44 30 31 50 -10 15 -55 12
-61 -5z"/>
</g>
</svg>
